<?xml version="1.0" encoding="UTF-8"?><svg id="a" xmlns="http://www.w3.org/2000/svg" width="800" height="375" viewBox="0 0 800 375"><path d="M238.924,27.766c-.503-.343-1.552,.948-4.099,2.355-2.146,1.186-3.897,1.648-6.035,2.213-6.527,1.724-15.39,1.097-16.598,1.006-12.516-.948-19.716-1.911-19.716-1.911-.937-.125-1.815-.244-2.667-.36,6.895-4.79,14.566-5.665,14.33-6.743-.164-.748-3.932-.632-6.654-.272-6.071,.805-11.021,3.372-14.728,6.03-11.709-1.685-10.919-1.877-13.619-1.875-13.505,.008-23.809,4.771-28.166,6.84-1.549,.735-11.399,5.513-20.42,14.686-2.495,2.537-4.249,4.723-5.541,6.619-1.809-.064-4.107,.013-6.874,.423-17.867,2.648-29.26,15.286-30.144,16.294-9.568,10.917-11.369,22.81-11.949,27.021-.717,5.206-1.948,14.154,2.308,23.898,6.581,15.067,21.317,20.666,23.491,21.454,21.464,7.779,43.686-5.399,53.5-16.014,3.781,.868,8.326,2.064,13.409,3.744,12.311,4.069,16.596,7.274,28.402,9.986,5.79,1.33,10.616,1.904,16.082,1.038,3.693-.586,8.851-1.48,12.061-5.706,1.806-2.378,2.306-4.903,2.594-6.355,.915-4.623,.013-9.629-1.038-9.727-.453-.042-.664,.854-1.556,2.205-1.865,2.823-4.422,4.174-6.096,5.058-3.71,1.96-7.382,1.965-9.338,1.945-21.613-.213-34.498-2.205-34.498-2.205-4.923-.761-10.859-1.72-17.591-2.892,.296-.399,.575-.791,.826-1.173,.548-.834,2.406-3.785,4.481-7.332,1.053-1.8,6.063-10.365,9.369-17.924,1.475-3.371,1.802-4.694,4.264-13.586h30.297v-2.366l-29.622-.065c.424-1.527,.901-3.235,1.443-5.166,4.781-17.021,6.617-22.667,9.098-28.922,4.701-11.853,7.457-15.149,8.889-16.518,5.384,1.429,12.381,3.593,22.48,6.718,0,0,5.323,1.647,13.651,2.048,2.397,.115,3.953,.056,5.733-.546,4.264-1.442,6.546-4.892,7.645-6.552,1.981-2.995,3.372-6.841,2.594-7.372Zm-102.079,68.591c-1.132,.44-2.378,.791-3.765,.977-3.611,.484-6.444-.337-7.434-.661-.629-.206-7.294-2.503-10.242-9.251-1.673-3.829-1.301-7.152-.826-11.398,.55-4.916,1.986-9.688,4.295-14.372,.51-1.034,1.053-2.019,1.61-2.979,1.303,.37,2.63,.874,3.964,1.556,8.987,4.597,11.936,13.877,12.486,15.608,.824,2.592,1.044,4.674,1.201,6.243,.201,2.009,.692,7.655-1.289,14.276Zm12.815,1.812c-2.462,8.859-3.674,13.328-6.483,19.69-3.312,7.5-5.72,12.799-11.285,17.769-6.383,5.699-13.258,7.697-16.328,8.404-7.133,1.643-12.831,.719-15.608,.24-3.748-.646-10-1.724-15.848-6.243-7.417-5.731-9.789-13.6-11.045-17.769-4.138-13.729-.07-25.606,1.681-30.495,3.708-10.354,9.533-16.664,10.805-18.009,3.522-3.722,9.971-10.682,20.65-12.966,1.867-.399,4.64-.989,7.878-.986-.598,.982-1.073,1.877-1.47,2.696-.646,1.329-2.127,4.586-3.018,9.053-.41,2.059-1.11,5.718-.604,10.462,.299,2.799,.623,5.833,2.515,9.254,2.452,4.434,5.971,6.689,7.343,7.544,1.198,.747,3.573,2.197,7.041,2.817,3.175,.567,5.675,.155,7.142-.101,.652-.114,1.702-.327,2.991-.736-.165,.43-.336,.862-.525,1.297-.968,2.233-6.061,13.98-18.009,17.769-2.461,.78-7.444,2.361-12.966,.24-6.672-2.562-9.341-8.688-9.845-9.845-.172-.394-4.033-9.56-.24-15.608,.758-1.208,2.254-2.983,2.161-5.523-.03-.822,.083-2.716-1.201-3.602-1.379-.951-3.28-.028-3.463,.064-1.232,.62-1.772,1.78-2.137,2.601-2.122,4.777-2.43,8.068-2.43,8.068-.465,4.979-.817,8.749,.815,13.307,.583,1.63,3.587,9.415,11.949,13.171,7.522,3.378,14.46,1.287,17.38,.407,9.635-2.904,14.721-10.079,16.566-12.764,2.575-3.748,4.023-7.469,4.87-10.738,.466-.219,.94-.455,1.426-.726,4.809-2.679,7.376-6.335,8.55-8.047,.44-.642,.938-1.441,1.441-2.358h2.545c-.952,3.403-2.024,7.261-3.247,11.66Zm30.209-65.808c-2.045,1.587-4.918,4.042-7.878,7.46-4.95,5.716-8.248,11.937-12.966,25.933-1.367,4.055-2.97,9.54-5.428,18.294l-2.036-.004c.775-1.813,1.468-3.946,1.862-6.394,.839-5.206-.068-9.228-.305-10.209-.334-1.385-.829-3.371-2.133-5.638-3.032-5.271-7.811-7.493-9.676-8.228-1.815-.716-5.878-2.319-8.838-.533-.416,.251-1.692,1.021-1.829,2.286-.166,1.537,1.467,2.754,1.612,2.859,1.997,1.447,3.896-.343,7.434,.33,3.012,.573,5.942,1.131,8.26,3.469,1.981,1.999,2.519,4.294,3.139,6.938,.379,1.616,1.317,5.84,0,11.068-.376,1.491-.883,2.835-1.455,4.049l-6.803-.015v2.485h5.449c-1.745,2.758-3.679,4.53-4.625,5.375-.994,.888-2.354,2.096-4.136,3.165,.386-2.083,.553-3.894,.668-5.274,.471-5.64,1.119-13.396-3.802-21.047-.62-.964-5.609-8.449-15.121-11.346,6.82-10.986,16.225-16.857,19.252-18.69,3.371-2.041,10.33-6.162,20.319-7.599,6.974-1.003,12.316-.251,17.345,.496,.696,.103,1.419,.229,2.166,.372-.16,.134-.322,.268-.474,.401ZM436.515,110.269c-.137-.399-.501-.857-1.014-.941-.706-.116-1.259,.548-1.376,.688-.181,.218-.282,.436-.34,.593-1.462,3.731-3.808,8.713-7.579,14.014-1.915,2.693-5.785,8.046-12.298,13.013-1.023,.78-2.381,1.755-5.633,3.469,.727-2.396,1.599-5.217,2.773-8.903,0,0,3.967-12.46,8.008-36.894,.037-.223,.147-.924,.019-1.812-.077-.535-.366-2.567-2.08-3.743-1.626-1.116-3.406-.744-4.575-.499-.782,.164-2.165,.453-2.911,1.581-.267,.403-.326,.722-.499,1.414-.444,1.771-.266,.764-1.081,3.577-1.608,5.546-2.306,9.466-2.828,11.23-.834,2.816-2.989,9.761-7.071,18.051,0,0-1.656,3.363-7.819,10.481-.415,.479-1.615,1.828-3.327,1.996-.361,.036-1.196,.106-1.913-.416-.67-.487-.877-1.228-.998-1.664-.25-.896-.142-1.639-.083-2.08,.181-1.351,.128-2.728,.333-4.076,1.069-7.047,.899-6.507,1.331-8.734,.164-.848,1.616-8.277,3.743-14.557,.675-1.993,1.315-3.998,1.996-5.989,.763-2.23,.819-2.327,.915-2.828,.111-.582,1.038-5.443-1.664-7.403-1.196-.868-2.655-.842-3.244-.832-.346,.006-1.718,.059-3.161,.915-1.352,.802-2.094,1.912-2.496,2.579-2.381,3.953-3.849,10.658-4.492,13.393-.739,3.145-1.401,5.965-2.662,9.4-.387,1.055-2.04,5.463-5.324,10.814,0,0-2.126,3.464-8.485,10.065-.486,.504-1.611,1.642-3.244,1.83-.349,.04-1.334,.14-2.329-.416-.703-.392-1.084-.929-1.248-1.165-.236-.339-.546-.897-.749-2.08-.192-1.121-.139-1.944-.083-2.995,.159-2.963,.02-1.605,.166-3.743,.129-1.885,.299-3.845,.416-4.908,.592-5.396,1.468-14.196,4.991-20.297,.051-.088,1.361-2.354,1.996-5.49,.199-.982,.372-2.246,.083-3.743-.201-1.041-.38-1.999-1.165-2.745-1.172-1.115-2.826-1.049-4.076-.998-.986,.04-1.776,.231-2.662,.499-2.967,.899-3.366,1.563-5.241,2.163-1.212,.388-4.069,.402-9.733,.416-.631,.002-1.151,0-1.497,0,.15-1.394,.189-3.345-.333-5.573-.505-2.16-1.024-4.375-2.995-5.74-.516-.357-2.606-1.678-4.825-.832-2.047,.78-2.75,2.851-2.911,3.327-.736,2.169,.06,4.084,.333,4.742,1.296,3.118,4.36,4.524,5.74,5.158,.62,.284,1.149,.47,1.497,.582-2.092,9.094-5.244,16.062-7.736,20.713-.351,.654-4.188,7.705-11.064,15.223-2.763,3.021-5.543,5.599-9.649,6.821-1.429,.425-4.019,1.159-7.071,.25-2.628-.783-4.254-2.383-4.825-2.995-1.69-1.812-2.278-3.705-2.662-4.991-.36-1.207-.406-3.272-.499-7.403-.02-.902-.039-2.281,.416-3.993,.168-.632,.356-1.144,.499-1.497,1.093-.03,2.688-.137,4.575-.499,2.605-.5,7.322-1.465,11.729-5.241,3.677-3.15,5.285-6.67,5.906-8.069,.802-1.806,1.385-3.767,1.497-5.989,.073-1.433,.12-2.67-.582-3.993-.994-1.873-2.807-2.626-3.494-2.911-.421-.175-1.762-.689-4.991-.499-1.348,.079-3.59,.227-6.405,1.165-6.333,2.108-10.274,6.45-11.563,7.903-3.024,3.409-4.595,6.768-5.573,8.901-2.4,5.231-1.986,7.253-4.825,10.897-2.929,3.761-5.51,4.355-6.239,4.492-.773,.146-2.914,.548-4.908-.749-.95-.618-1.55-1.417-1.927-2.088,.92-1.633,1.894-3.415,2.953-5.409,3.171-5.971,4.571-9.062,5.411-13.068,.139-.662,.932-4.66-.408-8.882-.483-1.523-1.072-2.53-2.042-3.267-.172-.131-1.827-1.349-3.982-1.021-2.065,.314-3.259,1.845-4.288,3.165-1.266,1.624-1.697,3.158-2.552,6.126-.6,2.082-1.274,4.478-1.429,7.759-.104,2.21,.071,3.885,.204,5.105,.197,1.807,.608,4.342,1.531,7.249,.139,.439,.699,1.079,.715,2.042,.019,1.13-.587,1.991-.919,2.45-2.891,3.998-4.387,5.961-5.615,7.453-1.367,1.66-2.535,3.167-4.492,5.105-.426,.421-1.368,1.337-2.859,2.042-.986,.466-2.421,1.145-3.369,.613-1.195-.671-1.082-2.966-1.021-3.982,.645-10.7,2.042-16.029,2.042-16.029,2.19-8.356,3.286-12.534,3.778-13.579,0,0,1.835-3.898,2.144-8.78,.075-1.184,.065-2.532-.817-3.675-1.084-1.406-2.843-1.671-3.471-1.736-1.111-.088-2.815-.038-4.39,.919-2.075,1.261-2.802,3.415-3.573,5.922-2.608,8.473-3.886,15.022-3.982,15.519-1.116,5.804-1.328,7.62-1.429,8.576-.256,2.409-.476,5.624-.204,9.495,.355,5.057,1.222,6.588,1.736,7.351,.388,.577,1.622,2.36,3.982,3.369,2.139,.915,4.041,.697,5.513,.51,1.5-.19,3.914-.734,6.841-2.654,3.17-2.08,5.087-4.559,7.657-8.372,1.622-2.405,3.202-4.896,4.956-7.903,1.171,1.19,3.334,2.902,6.372,3.185,4.977,.464,8.546-3.265,9.314-4.068,.553-.578,.958-1.112,1.23-1.501-.029,.86-.039,2.089,.058,3.56,.155,2.349,.366,5.541,1.634,8.522,2.261,5.313,6.992,7.864,7.471,8.113,4.591,2.393,9.09,1.789,12.417,1.342,2.793-.375,4.839-1.094,5.474-1.326,1.452-.531,6.552-2.554,12.315-9.305,3.061-3.585,4.633-6.622,7.777-12.696,4.861-9.392,7.701-18.008,8.983-21.948,.158-.485,.285-.884,.367-1.142h13.044c-1.695,4.647-2.874,8.644-3.679,11.657-.268,1.003-3.471,13.238-2.665,22.454,.072,.827,.248,2.446,.933,4.398,.725,2.068,1.597,4.715,3.998,6.263,1.772,1.143,3.913,1.228,8.195,1.399,1.154,.046,2.214,.029,3.465-.333,1.478-.428,2.526-1.137,3.398-1.799,4.187-3.178,6.96-7.273,7.529-8.129,1.169-1.758,2.083-3.133,3.065-5.197,.773-1.625,1.134-2.722,1.399-2.665,.409,.087-.054,2.77,.133,7.329,.079,1.928,.126,2.914,.466,3.998,.299,.951,1.058,3.255,3.265,4.797,1.417,.991,2.772,1.207,4.398,1.466,1.289,.206,3.25,.518,5.464-.133,2.196-.646,3.511-1.908,5.064-3.398,1.807-1.734,2.929-3.452,5.13-6.796,1.984-3.014,2.801-4.791,3.132-4.664,.552,.212-1.232,5.387-3.265,13.326-.865,3.377-1.533,5.987-2.152,8.304-13.927,6.191-13.182,4.97-18.184,7.764-5.987,3.344-14.62,8.309-19.734,18.161-1.557,3-4.618,9.105-2.86,15.873,.411,1.584,1.504,5.803,5.148,7.865,2.05,1.16,4.1,1.211,7.15,1.287,1.653,.041,4.169,.083,7.15-.858,2.237-.706,3.983-1.728,6.149-3.289,2.702-1.947,6.668-4.806,10.582-9.724,5.405-6.793,7.934-14.027,10.582-22.022,2.826-8.531,3.946-12.368,5.384-17.192,1.507-.798,3.057-1.676,4.665-2.666,2.77-1.705,5.036-3.1,7.813-5.522,4.279-3.732,6.772-7.285,8.717-10.058,3.55-5.061,4.204-7.51,7.097-12.796,0,0,.249-.454,.724-1.702,.45-1.181,.48-1.539,.362-1.883Zm-145.042-.539c1.698-3.938,2.547-5.907,3.428-7.354,2.34-3.845,3.51-5.767,5.032-7.022,.392-.324,2.999-2.422,6.635-2.875,1.991-.248,2.817,.181,3.262,.553,.71,.593,.963,1.469,1.161,2.156,.042,.147,.377,1.346,.221,2.765-.334,3.046-2.828,6.193-3.318,6.801-.582,.723-4.451,5.43-9.953,7.686-1.367,.56-2.81,.687-5.695,.94-.363,.032-.934,.074-1.272-.276-.648-.672,.034-2.297,.498-3.373Zm-29.674,6.221c-.57-.104-.725-1.619-1.032-4.646-.185-1.82-.388-3.924-.148-6.784,.25-2.966,.827-4.974,1.475-7.226,.756-2.63,1.382-3.956,2.655-4.867,.39-.279,1.356-.97,2.212-.664,1.098,.394,1.35,2.192,1.548,3.613,.32,2.289,.011,4.096-.074,4.572-.517,2.885-1.365,4.97-2.433,7.521-3.338,7.973-3.822,8.549-4.203,8.48Zm131.792,38.701c-3.013,9.787-5.773,16.226-7.396,19.789-2.271,4.988-4.383,8.886-7.862,12.793-2.933,3.293-5.392,4.969-8.129,5.797-1.046,.316-3.696,.982-6.73,.266-.884-.208-1.704-.411-2.532-1.066-1.59-1.256-1.951-3.183-2.265-4.997-.171-.987-.385-2.788,0-5.464,.428-2.971,1.363-5.418,2.265-7.263,2.625-5.369,6.537-8.847,8.995-10.994,6.335-5.532,12.655-8.281,17.2-10.216,3.328-1.417,2.505-.806,7.641-2.865,.022-.009,.044-.018,.067-.027-.395,1.397-.8,2.77-1.254,4.246ZM654.812,9.082c.815,.441-.192,4.479-1.875,7.7,0,0-3.081,5.894-7.901,7.7-.764,.286-1.398,.437-1.875,.536-10.695,2.219-26.649-1.875-26.649-1.875-.159-.041-4.057-.741-11.851-2.143-.846-.152-2.598-.45-4.754,0-1.582,.33-2.914,.966-4.218,1.808-5.425,3.501-8.972,8.972-8.972,8.972-2.797,4.313-5.515,9.576-8.838,18.815-2.437,6.775-3.924,12.14-5.624,18.279-2.454,8.857-2.307,9.557-4.419,16.605-1.931,6.443-3.219,10.687-5.691,16.204-3.126,6.976-6.28,11.823-7.231,13.257-2.048,3.087-5.211,7.799-10.512,12.923-3.132,3.027-6.759,6.533-12.655,9.575-1.433,.739-6.712,3.366-14.061,4.62-3.804,.649-6.868,.71-8.57,.737-2.207,.035-5.73,.074-10.043-.67-2.938-.507-7.407-1.277-12.387-4.017-6.2-3.411-9.667-7.935-11.249-10.043-.909-1.212-4.396-6.011-6.428-13.257-1.573-5.61-1.555-10.122-1.54-13.726,.01-2.412,.046-6.21,1.071-11.048,1.521-7.174,4.269-12.16,4.888-13.257,3.829-6.791,8.497-10.78,11.45-13.257,2.433-2.041,6.469-5.373,12.722-7.968,1.64-.68,6.059-2.4,12.119-3.147,5.198-.64,9.988-1.231,15.601,.87,5.641,2.111,8.93,5.749,9.642,6.562,2.768,3.161,4.034,6.408,4.955,8.771,1.076,2.759,1.63,4.778,1.875,6.562,.044,.319,.125,.961,.201,2.277,.14,2.423,.355,6.164-.335,10.78-.203,1.355-.553,3.633-1.473,6.428-.471,1.431-2.263,6.56-6.763,11.985-2.617,3.156-4.888,5.894-8.972,7.901-4.388,2.157-8.804,2.455-12.119,2.678-1.781,.12-2.942,.074-3.817,0-3.907-.329-6.735-1.586-7.499-1.942-1.025-.477-4.985-2.422-8.236-6.83-3.219-4.365-3.921-8.676-4.218-10.646-.468-3.104-.252-5.638-.067-7.03,.485-3.65,1.664-6.29,2.277-7.633,.444-.973,.566-2.3,1.674-3.147,1.093-.836,2.372-.807,2.477-.803,.83,.03,1.432,.338,1.808,.536,.541,.284,1.246,.655,1.607,1.406,.374,.778,.185,1.559,0,2.277-.371,1.441-.964,1.891-1.607,3.147-.559,1.091-.73,2.022-1.071,3.883-.364,1.982-.388,3.506-.402,4.754-.023,2.103-.042,3.792,.402,5.892,.313,1.482,.845,3.88,2.611,6.361,.385,.541,2.289,3.137,5.892,4.888,3.419,1.661,6.479,1.644,8.637,1.607,6.272-.107,10.84-2.673,12.186-3.482,5.373-3.229,7.942-7.64,10.043-11.249,2.926-5.024,4.001-9.439,4.352-11.048,.607-2.786,1.768-8.408,.067-15.266-.521-2.101-1.518-5.954-4.553-9.977-1.09-1.445-3.661-4.775-8.236-7.03-5.115-2.522-9.778-2.242-13.659-2.009-7.32,.44-12.606,3.012-14.396,3.95-5.883,3.085-9.213,6.992-11.985,10.244-1.806,2.118-6.597,8.079-9.843,17.208-2.917,8.203-3.183,15.021-3.214,17.543-.038,3.114-.059,7.459,1.473,12.856,.99,3.487,2.796,9.567,8.236,15.065,5.098,5.153,10.676,7.054,13.257,7.901,5.599,1.837,10.2,1.786,12.521,1.741,2.931-.057,9.289-.248,16.003-3.616,6.947-3.485,10.681-8.569,13.994-13.19,5.177-7.223,7.311-13.545,10.713-23.904,2.823-8.594,2.221-8.886,6.562-23.837,2.812-9.688,4.268-14.649,6.696-20.422,4.632-11.015,9.057-17.147,10.445-19.016,3.556-4.786,6.346-8.464,11.383-11.517,5.791-3.509,11.176-4.144,11.048-4.821-.136-.717-6.245-.298-12.18,.537-11.115,1.564-19.66,4.311-24.063,5.856-7.018,2.463-11.317,3.972-16.829,7.332-8.957,5.461-14.132,11.554-15.402,13.089-2.025,2.449-5.714,6.984-8.415,13.926-1.137,2.924-2.837,7.416-2.805,13.434,.016,3,.073,6.375,2.018,10.088,.782,1.494,2.676,4.989,6.791,6.988,3.148,1.529,6.024,1.417,7.775,1.329,6.78-.344,11.435-4.198,12.745-5.314,6.33-5.392,7.589-12.5,7.923-14.566,.334-2.068,.856-5.561-.541-9.645-.609-1.779-1.833-5.356-5.265-7.48-3.299-2.042-7.252-1.882-7.48-1.87-1.851,.096-3.752-.308-5.561,.098-.288,.065-.89,.213-1.378-.098-.769-.491-.973-1.82-.689-2.805,.428-1.486,1.942-2.138,2.46-2.362,1.253-.54,2.395-.433,4.626-.197,1.627,.172,2.993,.317,4.724,.984,.446,.172,2.135,.848,3.986,2.313,3.284,2.599,4.715,5.812,5.265,7.086,1.546,3.581,1.588,6.621,1.624,9.202,.07,5.082-1.155,8.81-1.476,9.743-1.296,3.769-3.129,6.411-4.183,7.775-3.208,4.152-6.748,6.225-7.48,6.643-1.652,.944-5.19,2.913-9.94,3.1-7.733,.304-15.412-4.245-18.945-10.826-1.383-2.577-1.779-4.81-2.165-6.988-1.351-7.62,.6-13.744,1.525-16.534,2.362-7.124,6.196-11.634,9.251-15.156,6.595-7.603,13.506-11.553,17.567-13.827,7.066-3.957,12.661-5.589,21.504-8.169,6.368-1.858,13.817-3.987,23.768-4.773,2.039-.161,5.771-.239,13.237-.394,7.6-.158,9.457-.102,18.109-.246,10.465-.174,14.577-.37,19.708-1.122,0,0,8.437-1.236,12.498-3.926,1.352-.896,2.768-1.698,4.086-2.644,1.718-1.234,2.196-1.743,2.53-1.563Zm79.364,100.279c-.133,.345-.35,.898-.629,1.571-2.124,5.127-6.407,15.461-15.923,22.313-4.174,3.006-7.469,3.983-10.266,4.19-3.083,.229-4.734-.538-5.133-.733-3.424-1.679-4.518-5.517-4.924-6.914-.633-2.18-.527-4.456-.314-9.009,.084-1.801,.213-3.286,.314-4.295,.651-.047,1.314-.115,1.99-.209,2.784-.387,9.415-1.295,14.98-6.286,4.359-3.909,5.786-8.276,6.076-9.219,.605-1.966,1.341-4.487,.21-7.124-.263-.614-1.236-2.651-3.457-3.771-1.166-.588-2.293-.729-3.876-.733-2.044-.005-5.213-.013-8.904,1.362-8.131,3.029-12.661,10.482-13.514,11.942-1.514,2.591-.719,2.172-5.447,12.571-1.028,2.262-1.916,4.151-3.352,6.495-.935,1.526-2.482,4.024-5.028,6.809-4.735,5.18-9.214,7.296-10.476,7.857-1.662,.739-3.212,1.208-5.028,1.257-.744,.02-2.315,.048-4.086-.629-3.278-1.252-4.891-4.019-5.343-4.819-1.264-2.241-1.384-4.423-1.571-8.695-.119-2.698-.01-4.916,.105-6.39,.576-.054,1.412-.148,2.409-.314,3.135-.522,9.927-1.653,15.295-6.705,1.247-1.173,4.748-4.489,6.076-9.847,.526-2.122,1.297-5.232-.419-7.752-1.59-2.335-4.428-2.858-5.971-3.143-3.949-.728-7.161,.55-9.638,1.571-5.177,2.136-8.608,5.395-10.371,7.333-3.97,4.364-5.804,8.98-7.647,13.619-1.346,3.386-1.111,3.669-2.514,6.809-1.83,4.096-3.687,6.877-5.762,9.952-1.341,1.988-3.135,4.482-5.866,7.019-1.519,1.411-3.013,2.542-4.924,2.514-.36-.005-1.583-.039-2.619-.838-1.686-1.301-1.775-3.781-1.781-5.133-.035-7.54,1.99-14.876,1.99-14.876,2.235-8.095,3.429-10.43,4.924-17.39,0,0,.787-2.08,1.048-5.552,.179-2.391-.115-3.154-.524-3.667-1.042-1.309-3.051-1.273-3.981-1.257-2.411,.042-3.263,1.057-6.495,2.095-2.003,.643-3.557,.859-4.924,1.048-2.007,.278-4.91,.474-8.485,0,.012-.58,.022-1.453,0-2.514-.063-3.043-.095-4.564-.629-5.866-.291-.711-1.059-2.582-3.038-3.562-.393-.195-2.786-1.32-4.866-.059-1.793,1.087-2.102,3.189-2.232,4.08-.39,2.656,.883,4.725,1.386,5.543,1.189,1.934,2.795,2.972,3.695,3.541,.897,.566,1.713,.927,2.309,1.155-.254,.717-.51,1.436-.77,2.155-1.781,4.942-3.633,9.766-5.543,14.473l.847,1.001h1.386l7.082-17.321h13.087c-.164,.371-.409,.932-.693,1.617-3.885,9.369-4.906,17.275-5.213,20.167-.234,2.208-.226,5.243-.209,11.314,.005,2.056,.035,3.944,.943,6.181,.386,.95,1.244,2.994,3.352,4.714,2.361,1.926,4.859,2.28,5.866,2.409,2.977,.382,5.283-.432,6.39-.838,5.661-2.074,8.752-6.922,11.419-11.104,1.121-1.758,2.51-4.21,3.771-7.333,.109,.586,.277,1.42,.524,2.409,1.058,4.248,2.307,9.262,5.762,12.676,4.019,3.97,9.509,4.28,11.628,4.4,6.528,.368,11.316-2.448,14.457-4.295,7.702-4.53,11.896-11.011,13.933-14.876l1.048-1.886c-.043,.802-.072,1.919,0,3.247,.169,3.126,.344,6.367,2.2,9.638,.509,.897,2.949,4.975,7.752,6.705,1.542,.555,2.878,.649,5.552,.838,2.291,.162,5.841,.412,9.219-.314,4.754-1.023,7.903-3.71,10.371-5.866,9.42-8.231,14.727-21.455,16.237-25.456h-3.247Zm-33.805-3.872c2.869-6.58,4.107-7.934,4.736-8.569,1.811-1.829,3.566-2.738,4.811-3.383,2.274-1.178,3.535-1.313,4.435-1.278,.696,.027,1.66,.077,2.481,.752,1.006,.827,1.182,2.085,1.278,2.856,.26,2.084-.465,3.818-.977,4.886-1.051,2.19-3.164,6.592-8.268,9.772-1.959,1.22-4.162,1.791-8.569,2.932-.902,.234-1.652,.404-2.105,0-.484-.432-.63-1.524,2.18-7.968Zm-47.186,2.878c1.882-4.712,2.824-7.068,3.9-8.608,1.07-1.53,2.769-3.909,5.783-5.716,0,0,2.465-1.478,5.918-1.681,.251-.015,.689-.022,1.143,.202,.511,.252,.873,.712,1.21,1.479,.756,1.722,.679,3.381,.672,3.497-.196,3.446-2.546,6.732-3.228,7.666-1.178,1.615-3.447,4.648-7.599,6.59-1.055,.493-2.855,.889-6.456,1.681-1.234,.271-1.936,.397-2.354,0-.661-.628-.173-2.152,1.009-5.111ZM44.116,264.996c.486,.085,2.662,.526,4.056,2.593,.389,.576,1.531,2.487,.864,4.788-.783,2.703-3.393,3.635-3.657,3.724-2.804,.948-6.503-.364-7.713-3.391-.838-2.095-.379-4.752,1.396-6.383,1.952-1.793,4.495-1.428,5.054-1.33Zm.654,14.768c.842,.889,1.027,2.168,.813,4.604-.337,3.821-1.384,6.696-1.535,7.313-.531,2.174-1.452,5.669-4.991,16.429,0,0-3.192,9.507-2.06,14.833,.083,.392,.298,1.404,1.099,2.335,.221,.257,1.418,1.59,3.09,1.579,.842-.005,1.488-.349,2.884-1.373,1.83-1.343,2.745-2.014,4.12-3.433,2.532-2.613,4.172-5.04,4.944-6.249,1.097-1.717,1.807-3.136,3.227-5.974,.282-.563,1.672-3.341,2.472-5.219,.973-2.284,1.674-4.645,4.464-18.678,.302-1.518,.736-3.714,2.541-5.356,.417-.379,2.28-2.074,4.807-1.717,.277,.039,2.123,.329,3.365,1.923,.427,.548,.927,1.436,1.099,3.502,.23,2.772-.395,4.484-1.442,9.133-.277,1.229-.582,2.658-.893,4.258,.729-1.496,5.217-10.553,11.331-15.382,1.201-.949,3.183-2.485,6.18-3.433,2.285-.723,4.167-.79,5.356-.824,2.078-.059,3.161,.216,3.777,.412,.069,.022,1.031,.334,1.854,.824,2.441,1.454,3.411,4.359,3.777,5.356,.295,.805,1.119,3.319-.206,11.331-.46,2.781-.94,4.779-1.579,7.416-.949,3.914-1.762,6.687-3.021,11.949-1.072,4.478-1.434,6.438-.481,8.584,.218,.491,1.259,2.835,3.227,3.159,1.12,.185,2.083-.361,2.815-.824,3.795-2.402,6.179-5.636,6.524-6.112,1.841-2.542,3.532-4.883,5.631-8.515,2.827-4.892,4.543-8.993,5.356-11.056,.321-.814,.577-1.5,.755-1.991h2.129l.549,.824c-.556,1.436-1.351,3.378-2.403,5.631-2.732,5.847-5.354,9.835-7.622,13.253-3.452,5.202-5.321,7.254-7.348,8.927-1.457,1.202-3.013,2.224-5.082,2.747-1.977,.5-3.595,.336-4.876,.206-2.077-.211-4.227-.428-6.249-1.923-1.959-1.448-2.785-3.345-3.227-4.395-1.176-2.794-.988-5.223-.687-8.584,.093-1.042,.347-3.426,1.854-9.339,.542-2.125,1.147-4.215,2.335-8.309,.761-2.622,2.004-6.864,2.266-12.086,.077-1.529,.072-3.208-1.03-4.12-1.13-.935-2.835-.587-3.639-.412-3.242,.707-5.351,3.099-7.004,5.082-4.563,5.472-6.874,8.244-9.476,13.322-1.997,3.898-3.225,6.295-4.052,9.957-.774,3.433-1.19,7.956-2.815,14.558-.321,1.304-.848,3.321-2.609,4.464-1.714,1.112-3.716,.824-4.395,.687-.598-.121-2.577-.52-3.639-2.197-.689-1.088-.663-2.192-.618-4.12,.017-.703,.148-1.613,.412-3.433,.209-1.445,.329-2.27,.549-3.365,.496-2.463,.912-3.358,.755-3.433-.383-.185-2.587,5.296-7.348,10.781-4.2,4.839-7.191,5.996-8.103,6.318-3.405,1.202-6.25,.798-6.936,.687-1.412-.228-3.71-.6-5.631-2.403-1.956-1.837-2.443-4.147-2.884-6.386-.193-.979-.535-3.093,0-8.378,.353-3.483,.881-6.146,1.923-11.331,.414-2.06,.825-3.914,1.648-7.622,.927-4.177,1.574-6.929,3.09-10.232,1.087-2.369,1.932-3.518,3.228-4.326,1.953-1.218,3.989-1.075,4.464-1.03,.915,.086,2.255,.213,3.173,1.182Zm312.942-60.518c-2.098,.543-3.147,.814-3.608,.907-5.344,1.073-10.838,5.549-12.535,6.916-5.176,4.168-7.993,8.512-10.115,11.844-3.673,5.768-5.387,10.656-7.608,17.117-2.011,5.852-3.064,10.155-4.582,16.426-1.415,5.848-1.605,7.312-5.619,26.021-.666,3.102,.225-1.064-4.409,16.08-.441,1.633-1.36,5.038-3.804,8.731-3.126,4.723-5.824,5.501-6.743,5.706-1.227,.273-2.301,.198-3.026,.086,1.007-.676,2.757-2.061,3.89-4.409,.417-.864,1.105-2.592,1.037-6.138-.075-3.921-1.012-6.807-1.729-9.077-3.106-9.834-1.26-5.178-3.717-12.535-1.326-3.97-2.104-5.865-7.002-18.241-2.024-5.114-4.707-11.925-7.521-20.575-1.116-3.43-1.777-5.69-2.161-8.731-.678-5.371-.121-10.253,.173-12.708,.198-1.653,.428-3.021,.605-3.977-.486,.558-1.187,1.386-1.988,2.421-6.688,8.638-9.042,17.093-10.806,23.428-4.664,16.746-7.003,25.142-7.348,26.281-3.638,12.021-5.458,18.032-9.164,25.33-3.151,6.205-7.745,15.048-17.031,23.428-4.078,3.68-9.77,8.71-18.846,11.671-1.417,.462-8.309,2.633-17.636,2.161-5.586-.283-14.263-.722-22.909-6.657-10.782-7.401-14.134-18.281-14.956-21.094-1.802-6.172-1.585-11.21-1.383-15.129,.62-12.023,5.064-20.547,6.311-22.823,1.769-3.23,5.841-10.471,14.351-16.512,2.734-1.941,9.836-6.533,20.056-8.04,4.681-.69,10.253-1.511,16.858,.864,2.236,.805,9.493,3.535,13.918,10.979,2.569,4.322,3.014,8.264,3.458,12.189,.955,8.448-.935,15.212-2.075,18.5-1.381,3.984-3.558,10.267-9.682,15.561-5.466,4.726-11.154,6.136-12.708,6.484-1.928,.431-5.654,1.225-10.374,.346-6.602-1.23-11.002-4.959-13.14-7.175-1.604-1.662-4.603-4.846-5.792-9.855-.842-3.547-.443-6.604-.086-9.337,.302-2.312,.778-3.875,1.729-7.002,1.203-3.953,1.859-4.825,2.766-5.36,1.283-.757,3.272-.961,4.322,0,.642,.587,.802,1.489,.951,2.334,.216,1.224,.054,2.203,0,2.507-.391,2.218-.586,3.327-2.248,7.262-2.353,5.573,.211,11.832,.605,12.795,.601,1.467,2.415,5.719,7.002,8.299,3.908,2.198,7.66,1.963,10.028,1.815,7.375-.461,12.432-4.408,14.264-5.879,5.043-4.048,7.285-8.748,8.559-11.498,1.259-2.718,4.376-10.344,3.026-20.143-.532-3.864-1.409-10.231-6.484-15.647-.908-.97-3.357-3.41-7.262-5.187-7.468-3.399-14.582-1.788-17.895-1.037-8.924,2.022-14.62,7.044-17.636,9.769-10.867,9.818-13.962,21.964-15.042,26.454-1.007,4.184-2.86,12.287-.605,22.304,1.054,4.68,2.788,12.381,9.509,18.587,5.854,5.404,12.454,6.87,16.166,7.694,6.828,1.516,12.616,.909,16.08,.259,2.399-.45,6.415-1.237,10.979-3.804,5.785-3.253,9.042-7.448,10.806-9.769,2.793-3.674,4.181-6.813,6.138-11.239,.641-1.449,2.032-4.703,4.495-12.622,1.505-4.838,2.282-7.792,4.582-16.339,2.809-10.439,4.224-15.693,4.755-17.376,1.994-6.321,3.678-11.661,6.916-18.155,3.067-6.15,6.618-13.114,13.746-19.711,6.558-6.069,12.755-8.69,14.351-9.337,1.715-.695,3.188-1.165,4.236-1.47-11.186,.003-30.933,1.449-49.709,11.498-9.476,5.072-14.947,10.324-17.549,13.054-3.723,3.906-9.619,10.235-12.449,20.229-1.258,4.445-2.964,10.804-.259,17.636,.765,1.932,2.636,6.659,7.608,9.25,4.67,2.434,9.282,1.527,10.893,1.21,4.576-.9,7.53-3.325,8.818-4.409,2.618-2.203,3.988-4.457,5.273-6.57,1.29-2.122,2.854-4.745,3.631-8.559,.352-1.728,.913-4.634,.086-8.213-.328-1.423-.888-3.727-2.766-5.965-1.763-2.101-3.742-3.016-4.15-3.199-1.398-.625-2.621-.814-3.544-.951-1.089-.161-2.195-.165-4.409-.173-2.234-.008-2.994,.065-4.063-.432-.487-.226-1.259-.598-1.729-1.47-.55-1.019-.314-2.035-.259-2.248,.29-1.131,1.138-1.747,1.47-1.988,.552-.401,2.147-1.338,6.397-.346,2.747,.641,6.697,1.563,10.028,5.187,2.801,3.047,3.598,6.301,4.236,8.904,.319,1.303,1.128,5.057,.432,9.855-.815,5.622-3.227,9.459-4.928,12.103-2.301,3.577-4.053,6.299-7.608,8.299-4.168,2.345-8.31,2.287-11.152,2.248-2.115-.029-5.113-.1-8.645-1.556-1.379-.569-5.403-2.287-8.472-6.484-2.842-3.886-3.297-7.75-3.717-11.325-.317-2.698-.536-7.538,1.21-13.14,.375-1.202,1.41-4.269,4.582-9.164,5.257-8.113,11.17-13.199,12.967-14.696,9.465-7.881,18.773-11.106,26.627-13.746,.704-.237,12.335-4.078,26.021-5.36,4.828-.452,12.269-.806,19.538-.865,1.801-.014,3.296-.008,4.322,0v1.383c-2.783,.142-4.871,.894-6.138,1.47-1.615,.734-3.198,1.453-4.323,3.112-.573,.846-1.262,2.282-1.21,5.273,.077,4.465,1.727,7.871,2.507,9.51,2.537,5.326,4.552,10.887,7.002,16.253,2.084,4.562,3.618,7.922,5.273,12.017,2.525,6.244,5.301,13.204,7.175,22.477,1.369,6.771,1.647,11.754,1.729,14.178,.077,2.257,.047,4.156,0,5.533,.059-.215,.15-.547,.259-.951,0,0,1.708-6.298,3.199-12.708,2.197-9.45,3.778-18.928,7.223-33.323,1.709-7.138,2.783-10.917,4.201-15.019,2.496-7.221,4.911-12.114,5.524-13.35,3.065-6.172,5.189-10.364,9.495-14.846,3.827-3.984,7.513-6.256,9.264-7.25,2.134-1.212,3.686-1.805,6.79-2.992,3.652-1.397,5.231-1.669,6.905-1.266,.64,.154,2.571,.619,3.05,2.072,.36,1.094-.291,2.18-.403,2.359-.693,1.114-1.88,1.508-5.649,2.483Zm98.213,78.992l-2.213,.123c-.142,.402-.357,.998-.635,1.713-1.359,3.497-2.238,5.756-4.076,7.876-.906,1.045-1.91,2.176-3.635,2.809-1.336,.49-2.501,.46-3.249,.441-1.244-.032-2.659-.069-3.855-1.046-.297-.242-1.099-.897-1.267-1.928-.182-1.117,.479-2.073,.716-2.423,1.622-2.402,2.592-5.184,3.91-7.765,1.334-2.613,1.834-4.643,2.699-8.151,1.269-5.15,.914-6.937,.441-8.151-.666-1.71-1.733-2.712-2.093-3.029-.618-.544-2.031-1.789-3.91-1.707-1.436,.062-2.436,.868-3.249,1.542-.678,.562-2.453,2.185-3.855,6.444-.542,1.646-.988,3.563-1.267,6.664-.114,1.268-.879,7.592,.11,10.85,.659,2.17,.936,2.864,.936,2.864,.122,.306,.362,.885,.606,1.707,.227,.764,.34,1.155,.33,1.597-.021,.955-.576,1.656-.826,1.983-1.934,2.528-1.482,3.355-5.54,8.348-2.311,2.844-1.497,1.393-5.505,5.58-.329,.344-1.079,1.131-2.262,1.357-.055,.01-1.286,.231-2.262-.302-1.592-.868-1.831-3.37-1.885-4.977-.246-7.286,2.622-16.117,3.544-19.003,1.317-4.121,2.185-8.388,3.695-12.442,0,0,.601-1.613,1.056-4.6,.245-1.607,.257-2.541-.075-3.544-.137-.413-.492-1.484-1.433-2.262-2.108-1.743-5.345-.516-5.505-.452-1.784,.706-3.013,2.187-4.524,5.279-2.74,5.603-2.369,8.232-4.977,16.213-.88,2.693-1.764,4.97-2.488,6.711-1.453,3.493-2.844,6.219-3.846,8.069-.432,.797-2.047,3.246-5.279,8.144-.449,.68-1.439,2.146-3.243,3.167-.748,.423-1.882,1.044-3.243,.754-.364-.078-1.231-.229-1.81-.98-.133-.172-.337-.486-.452-1.011-.69-3.14,.152-7.713,.152-7.713,.627-3.424,.772-4.026,.772-4.026,4.228-17.431,3.603-16.438,4.68-19.271,.944-2.483,1.425-4.439,2.386-8.351,.468-1.906,.789-3.426,0-4.864-1.002-1.828-3.128-2.305-3.487-2.386-2.747-.617-4.925,1.057-5.323,1.376-1.689,1.358-2.22,3.196-2.661,4.68-3,10.099-1.674,3.372-4.13,12.847-1.649,6.363-1.763,7.528-3.028,10.094-1.217,2.469-2.492,4.19-3.671,5.781-1.439,1.943-3.699,4.953-7.433,7.984-2.569,2.085-4.844,3.932-8.443,4.955-2.187,.622-5.057,1.438-7.984,.092-2.857-1.314-4.139-3.94-4.68-5.047-1.126-2.305-1.196-4.297-1.285-7.984-.044-1.823,.007-4.412,.459-7.525,.451-.004,1.121-.022,1.927-.092,1.956-.169,8.785-.855,14.775-6.148,1.324-1.17,5.376-4.751,6.607-10.094,.22-.955,.652-3.275,.092-6.057-.276-1.372-.525-2.531-1.468-3.487-.636-.644-1.729-1.34-4.952-1.507-2.107-.109-4.551-.211-7.99,.86-6.231,1.941-10.153,5.995-11.924,7.867-1.525,1.613-5.18,5.811-7.375,12.415-1.119,3.366-3.65,10.982-.492,19.176,.852,2.211,2.536,6.409,6.884,9.342,4.813,3.247,9.952,2.959,12.292,2.827,4.926-.277,8.456-2.047,10.448-3.073,8.528-4.39,13.037-11.699,14.997-15.488-.292,1.875-.496,4.572,0,7.744,.426,2.723,.597,4.443,1.844,6.269,2.349,3.44,6.198,4.2,6.761,4.302,3.126,.568,5.624-.475,6.515-.86,1.52-.658,3.92-2.066,10.203-11.801,1.399-2.168,2.492-3.976,3.196-5.163-.06,1.131-.11,2.84,0,4.917,.224,4.237,.336,6.356,1.598,8.359,2.028,3.219,5.602,4.166,6.146,4.302,4.498,1.123,8.334-1.254,10.08-2.336,1.072-.664,2.917-1.965,9.096-10.326,1.84-2.49,3.31-4.584,4.302-6.023,.457,.457,1.147,1.062,2.09,1.598,2.73,1.554,6.13,1.718,8.85,.738,3.272-1.179,4.882-3.766,7.13-7.375,1.676-2.692,2.638-5.159,3.196-6.884l-.738-1.106Zm-110.567-4.758c.676-1.495,1.774-3.878,3.98-6.441,.382-.444,2.319-2.657,5.5-4.559,2.204-1.318,3.326-1.483,4.27-1.375,.348,.04,1.931,.22,2.822,1.447,.279,.384,.751,1.23,.362,3.908-.219,1.505-.506,3.359-1.737,5.645-1.901,3.531-4.608,5.409-6.513,6.73-1.993,1.383-4.983,3.403-9.191,3.691-.835,.057-1.535,.034-2.026,0,.497-3.964,1.623-7.033,2.533-9.046Zm89.115,11.518c-.762-2.73-1.057-5.129-1.163-6.98-.211-3.686,.261-6.372,.698-8.764,.623-3.41,1.341-5.117,2.482-6.437,1.387-1.605,2.584-1.695,2.87-1.706,.252-.01,.819-.024,1.318,.31,.928,.621,.994,2.022,1.008,2.947,.051,3.22,.077,4.831-.62,7.29-.773,2.726-1.922,4.879-4.188,9.074-.964,1.785-1.806,3.248-2.404,4.266Zm189.59-83.915c-4.459,7.756-5.655,14.267-7.31,22.37-3.452,16.902-.385-.954-7.486,33.291-4.097,19.758-4.298,21.745-6.253,28.975-3.198,11.825-4.797,17.737-8.631,25.276-3.697,7.271-9.283,17.946-20.785,25.452-2.284,1.49-7.851,5.054-15.853,6.87-4.214,.956-7.819,1.136-9.952,1.233-4.16,.189-7.273,.331-11.097-.528-6.063-1.363-10.145-4.397-12.242-5.989-1.004-.762-6.042-4.672-10.04-11.801-3.132-5.585-4.108-10.438-4.844-14.267-.7-3.638-.672-8.297-.617-17.614,0,0,.019-3.235,1.849-10.128,.255-.961,.7-2.53,2.114-3.523,.193-.135,1.789-1.217,3.699-.705,.224,.06,1.944,.522,2.378,1.849,.283,.868-.133,1.649-.528,2.554-.737,1.685-.957,3.556-1.585,5.284-.909,2.501-2.572,10.792-1.585,20.08,.592,5.577,1.438,13.541,7.134,21.225,1.99,2.684,6.126,8.264,13.563,10.657,5.226,1.682,9.707,1.025,15.5,.176,3.553-.521,7.902-1.198,12.858-3.875,4.163-2.249,6.79-4.847,8.191-6.253,4.398-4.415,6.602-8.775,8.014-11.625,1.867-3.769,2.797-6.967,4.58-13.211,1.73-6.058,2.969-10.394,3.963-16.469,1.17-7.145,1.025-10.723,2.994-18.671,.542-2.186,1.059-3.96,1.409-5.108-2.238,4.487-9.96,19.605-19.288,30.649-.962,1.139-5.191,6.044-11.713,8.719-2.427,.995-5.246,1.713-8.279,1.057-.869-.188-2.475-.555-3.963-1.849-.391-.34-1.438-1.321-2.466-3.875-1.122-2.788-1.32-5.213-1.409-6.693-.36-6.016,.176-10.04,.176-10.04,1.92-14.403,3.699-22.106,3.699-22.106,1.175-5.088,3.043-13.074,6.605-23.427,3.772-10.961,7.28-18.291,8.367-20.521,4.454-9.142,8.206-14.69,13.563-19.552,.972-.882,1.809-1.571,2.378-2.026-4.966-.253-11.856-.431-20.08-.088-7.367,.307-12.163,.508-18.407,1.673-5.913,1.104-14.396,2.761-23.779,8.103-4.829,2.749-12.034,6.953-18.055,15.412-2.385,3.351-8.644,12.405-8.631,25.1,.005,4.354,.013,11.901,5.284,18.759,1.214,1.579,5.311,6.51,12.506,8.719,5.372,1.649,9.864,.98,12.682,.528,6.23-.999,10.535-3.589,12.066-4.58,1.556-1.007,4.664-3.218,7.574-6.958,1.355-1.741,3.359-4.365,4.58-8.367,1.055-3.458,1-6.224,.969-7.046-.06-1.586-.153-3.539-1.145-5.813-1.015-2.327-2.437-3.766-3.523-4.844-1.104-1.096-2.423-2.406-4.58-3.347-2.854-1.245-5.419-1.079-6.87-.969-1.217,.093-3.78,.316-6.429,1.849-2.708,1.568-2.525,2.779-5.284,4.051-1.194,.55-3.585,1.653-5.372,.528-.871-.548-1.469-1.544-1.585-2.554-.048-.421-.097-1.576,1.321-3.347,1.809-2.258,4.228-3.302,6.077-3.963,4.461-1.596,9.35-3.345,14.972-1.585,2.865,.897,5.018,2.423,5.813,2.994,2.194,1.579,3.58,3.189,4.139,3.875,.837,1.027,3.326,4.275,4.315,9.071,1.231,5.968-.552,10.72-1.585,13.475-.574,1.531-2.903,7.349-8.807,12.418-5.504,4.726-11.11,6.221-14.003,6.958-3.359,.855-8.699,2.215-15.324,.617-7.742-1.868-12.413-6.61-14.267-8.543-1.648-1.718-6.069-6.438-7.662-13.563-.782-3.496-.788-7.149-.793-9.688-.002-.985,.017-3.864,.352-6.693,.974-8.214,4.458-14.655,5.46-16.469,5.344-9.676,12.816-14.889,16.557-17.438,9.771-6.656,19.091-8.623,24.396-9.688,9.492-1.906,20.256-1.997,23.691-2.026,1.054-.009,.588,.006,2.642,0,3.662-.011,14.321-.084,23.867,1.321,1.041,.153,3.062,.47,3.259,1.409,.177,.846-1.464,1.456-2.554,2.818,0,0-2.588,3.089-4.668,6.605-2.958,5.002-4.486,11.341-6.165,16.205-2.34,6.78-3.807,11.877-5.372,17.35-2.219,7.756-4.123,14.464-5.989,23.515-.344,1.67-2.164,10.791-1.497,21.93,.208,3.466,.691,7.72,3.435,9.071,1.736,.855,3.757,.242,4.844-.088,3.478-1.056,5.542-3.571,7.046-5.46,6.82-8.569,8.543-11.625,8.543-11.625,6.099-10.82,9.983-19.802,10.48-20.961,1.128-2.629,4.421-10.414,8.103-21.049,2.289-6.612,3.474-10.702,6.693-19.199,2.036-5.374,3.88-9.857,7.574-14.62,2.896-3.734,5.443-5.723,7.134-6.87,2.653-1.798,5.142-2.838,6.933-3.448-2.184,2.289-5.213,5.838-7.99,10.67Zm159.726,76.786l-1.612,.726c-.238,.847-.635,2.183-1.209,3.789-2.364,6.61-5.215,10.752-9.593,17.01-.124,.177-2.131,3.004-5.482,5.724-1.251,1.016-2.34,1.732-3.789,1.774-.181,.005-2.384,.037-3.547-1.451-.775-.992-.684-2.14-.242-5.24,.805-5.646,1.205-6.765,1.29-9.271,.085-2.517,.134-3.964-.484-5.563-1.617-4.184-6.442-5.884-8.384-6.449,1.1,.042,2.673,.017,4.515-.322,1.723-.318,10.158-2.103,13.221-8.948,.558-1.246,1.99-4.448,.564-7.497-1.342-2.872-4.394-3.845-5.482-4.192-4.711-1.503-8.984,.777-10.4,1.532-2.95,1.573-4.694,3.642-5.482,4.595-6.365,7.699-12.869,17.332-15.075,20.638,.478-2.178,1.201-5.455,2.096-9.432,3.313-14.727,4.969-22.091,6.772-28.458,2.553-9.016,4.227-14.928,7.9-22.653,4.219-8.873,7.006-14.734,13.221-19.509,8.38-6.439,18.039-7.1,17.816-8.142-.147-.689-4.407-.612-8.384,.161-8.637,1.678-15.103,6.476-19.59,10.722-10.97,10.382-15.485,22.557-20.638,36.923-1.835,5.115-6.694,20.622-7.82,28.458-.122,.846-.619,4.526-2.096,9.11-.723,2.242-1.495,4.128-2.096,5.482-1.332,3.001-2.584,5.108-3.628,6.852-2.078,3.471-3.458,5.744-5.922,8.213-1.686,1.689-3.024,2.614-4.458,3.28-1.82,.845-2.619,1.274-3.533,1.093,0,0-1.179-.229-2.187-1.43-2.735-3.26-.029-14.581,.633-17.278,2.772-11.299,4.159-16.948,5.395-20.093,.188-.478,.801-1.993,1.023-4.093,.211-1.993,.461-2.993-.093-3.907-.977-1.613-3.417-1.734-4.093-1.767-2.089-.104-3.129,.718-6.419,1.767-1.846,.589-3.388,.927-4.372,1.116h-9.581c.047-.812,.08-1.966,0-3.349-.17-2.93-.259-4.464-1.302-5.953-.273-.389-1.485-2.121-3.721-2.512-.375-.066-2.414-.422-4,.93-1.369,1.168-1.504,2.846-1.581,3.814-.151,1.881,.51,3.353,.93,4.093,.704,1.238,1.566,1.889,2.884,2.884,.927,.7,2.316,1.618,4.186,2.419-.192,.683-.473,1.647-.837,2.791-.432,1.356-1.855,5.705-5.488,13.302-2.117,4.427-3.306,6.445-4.837,8.465-1.093,1.442-1.999,2.407-3.256,3.256-2.38,1.607-4.774,1.954-5.86,2.047-1.436,.122-2.632-.029-3.442-.186,.221-.602,.557-1.541,.93-2.698,2.341-7.249,4.558-14.112,2.605-21.302-.606-2.23-1.568-5.588-4.651-8.093-2.952-2.398-6.254-2.718-8.231-2.883-7.118-.596-12.533,3.008-14.589,4.377-5.88,3.914-8.557,9.036-9.564,11.023-3.349,6.613-3.296,12.577-3.242,15.075,.097,4.52,.251,11.709,5.511,17.02,1.034,1.044,4.275,4.224,9.401,4.863,4.322,.539,7.663-1.017,8.915-1.621,1.13-.544,6.214-2.994,8.753-8.105,.697-1.403,1.153-2.908,2.756-3.89,1.171-.718,2.106-.638,4.377-.973,0,0,3.019-.445,5.673-1.297,3.436-1.102,5.46-3.969,7.294-6.646,5.823-8.5,9.039-21.725,9.649-24.306h13.463c-.189,.437-.476,1.109-.806,1.935-.842,2.102-3.077,7.963-4.918,18.864-1.171,6.934-1.161,9.862-1.129,11.206,.091,3.767,.177,6.074,1.693,8.545,2.641,4.304,7.354,5.408,8.062,5.563,3.294,.718,5.948-.09,6.933-.403,3.995-1.271,6.282-3.983,9.11-7.336,1.522-1.805,3.504-4.471,5.321-8.062-.512,2.376-.837,4.388-1.048,5.885-.601,4.269-.392,5.234,0,6.046,1.121,2.322,3.559,3.023,3.708,3.063,2.51,.679,5.058-.514,6.288-2.177,.767-1.037,.865-2.047,1.048-3.305,.428-2.948,1.425-5.787,2.015-8.707,.591-2.922,1.929-7.253,5.24-11.367,1.159-1.44,2.285-2.483,3.063-3.144,.326-.022,.801-.038,1.37,0,.797,.053,3.397,.26,5.804,2.177,.711,.566,2.333,1.892,3.063,4.192,.471,1.483,.353,2.684,.161,4.434-.292,2.669-.816,3.088-1.532,6.369-.71,3.253-1.052,4.918-.403,6.852,.645,1.923,1.905,3.11,2.419,3.547,1.916,1.631,4.042,1.853,6.369,2.096,1.445,.151,4.034,.421,6.772-.403,3.838-1.156,6.223-3.938,8.304-6.691,5.494-7.271,9.489-15.166,11.931-20.557l.806-3.225-1.129-1.209Zm-134.212,4.38c-.137,.141-2.518,2.671-2.155,6.25,.062,.609,.371,3.657,2.478,5.064,.739,.494,1.819,.865,1.94,1.724,.067,.48-.196,.887-.323,1.078-2.759,4.138-4.157,6.184-5.388,7.219-1.529,1.287-3.778,3.13-7.004,3.448-1.864,.184-3.166-.23-3.448-.323-2.068-.686-3.263-2.083-3.771-2.694-.679-.815-2.062-2.76-2.478-7.866-.134-1.643-.317-5.444,.862-10.668,1.181-5.233,3.052-8.897,4.418-11.53,.579-1.116,2.768-5.24,6.681-9.482,1.658-1.798,3.094-3.04,5.172-3.448,.524-.103,2.479-.426,4.526,.539,2.13,1.005,3.074,2.799,4.095,4.741,2.645,5.031,2.31,10.02,2.155,11.961-.061,.762-.147,1.393-.216,1.832-.254-.057-4.533-.942-7.543,2.155Zm95.16-4.901c-1.464,.099-2.677,.092-3.488,.07l.279-.907c.706-.868,4.584-5.616,8.162-9.209,.744-.747,1.871-1.842,3.628-2.302,1.157-.303,2.163-.22,3.139-.14,1.717,.142,2.733,.226,3.418,.977,.956,1.048,.649,2.717,.558,3.209-.491,2.662-2.794,4.268-4.116,5.162-3.872,2.62-8.167,2.909-11.581,3.139Z" fill="#111"/></svg>